<svg role="img" viewBox="0 0 24 24" xmlns="http://www.w3.org/2000/svg"><title>Amazon</title><path fill="#FF9900" d="M13.435 15.688c-1.923.634-3.522 1.09-5.18 1.09-2.298 0-4.045-.634-4.045-2.906 0-3.792 4.414-3.606 7.644-3.328.024-2.022-.266-4.595-3.476-4.595-1.527 0-3.03.682-3.722 1.189l-.936-2.09c.983-.75 3.033-1.636 5.496-1.636 4.966 0 5.672 3.863 5.394 6.953l-.118 7.393h-2.14l-.23-1.42s-.5.8-1.547 1.636c-1.047.836-2.522 1.685-4.54 1.685-2.018 0-3.84-.799-3.84-3.065 0-2.839 2.45-3.15 4.823-3.15 1.512 0 3.29.317 4.298.544zm11.233 6.07c-2.81 1.09-8.567 1.25-11.588-.635-.24-.165.048-.544.24-.383 2.906 1.705 7.854 1.488 10.422-.096.312-.216 1.299.7.926 1.114zm-1.896-.864c-.336-.935-.864-2.3-3.67-1.103-.385.168-.505-.504-.096-.697 3.336-1.464 4.512 1.393 4.192 2.616-.048.168-.312.024-.426-.816z"/></svg>
