<svg role="img" viewBox="0 0 24 24" xmlns="http://www.w3.org/2000/svg"><title>CodePen</title><path fill="#000000" d="M24 8.25a3.987 3.987 0 0 0-1.077-2.618A24.897 24.897 0 0 0 12 0C8.36 0 4.8.765 1.077 5.632A3.987 3.987 0 0 0 0 8.25v7.502a3.987 3.987 0 0 0 1.077 2.617A24.897 24.897 0 0 0 12 24c3.64 0 7.2-.765 10.923-5.631a3.989 3.989 0 0 0 1.077-2.619V8.25Zm-13.8 6.37l-4.5 3.003V12.97l4.5 3.003v-1.353Zm9.3 1.353l-4.5-3.003v-1.353l4.5 3.003v1.353Zm-4.8-11.75l3.858 2.573L12 9.39 5.442 6.776l3.858-2.573c.87-.58 1.83-1.03 2.7-1.03.87 0 1.83.45 2.7 1.03Zm-8.4 4.502l3.3 2.202-3.3 2.202V8.725Zm4.8 1.602l3.6 2.401-3.6 2.401-3.6-2.401 3.6-2.401Zm4.8 7.425l-3.3-2.202 3.3-2.202v4.404ZM18.558 17.225l-3.858 2.573a7.35 7.35 0 0 1-2.7 1.03c-.87 0-1.83-.45-2.7-1.03l-3.858-2.573L12 14.61l6.558 2.615Z"/></svg>
