<svg xmlns="http://www.w3.org/2000/svg" viewBox="0 0 48 48" width="48px" height="48px">
    <path fill="#212121" d="M24,4C12.95,4,4,12.95,4,24c0,8.84,5.73,16.34,13.68,18.99c1,0.18,1.37-0.43,1.37-0.96c0-0.47-0.02-1.72-0.03-3.38c-5.56,1.21-6.73-2.68-6.73-2.68c-0.91-2.31-2.22-2.93-2.22-2.93c-1.81-1.24,0.14-1.22,0.14-1.22c2.01,0.14,3.07,2.06,3.07,2.06c1.78,3.05,4.68,2.17,5.82,1.66c0.18-1.29,0.7-2.17,1.27-2.67c-4.44-0.5-9.1-2.22-9.1-9.87c0-2.18,0.78-3.96,2.06-5.36c-0.21-0.5-0.89-2.54,0.2-5.29c0,0,1.68-0.54,5.5,2.05c1.6-0.45,3.31-0.67,5.01-0.68c1.7,0.01,3.41,0.23,5.01,0.68c3.82-2.59,5.49-2.05,5.49-2.05c1.09,2.75,0.41,4.79,0.2,5.29c1.29,1.4,2.06,3.18,2.06,5.36c0,7.66-4.67,9.36-9.11,9.85c0.72,0.62,1.36,1.84,1.36,3.71c0,2.68-0.02,4.84-0.02,5.5c0,0.54,0.37,1.15,1.38,0.95C38.27,40.33,44,32.84,44,24C44,12.95,35.05,4,24,4z"/>
</svg>
