<svg role="img" viewBox="0 0 24 24" xmlns="http://www.w3.org/2000/svg"><title>Disney+</title><rect width="24" height="24" rx="4" fill="#001D4A"/><path fill="#ffffff" transform="scale(0.8) translate(3 3)" d="M10.793 11.233c.026.155.05.32.071.496l.019.232c.074.808.148 1.62.247 2.428.14.935.253 1.874.49 2.793.18.665.376 1.334.697 1.954.26.475.603.896 1.053 1.206.577.382 1.32.533 2.016.51.58.006 1.157-.14 1.67-.423.834-.482 1.32-1.353 1.36-2.288 0-.012.016-.254.016-.266.074-1.28-.27-2.548-.82-3.7-.723-1.464-1.875-2.613-3.08-3.64-.09-.074-.183-.15-.275-.224l-.195-.144c-.75-.544-1.558-.992-2.385-1.413-.23-.112-.46-.22-.693-.33-.06-.027-.12-.054-.18-.08l-.04-.038-.287 3.012c.433.003.864-.047 1.292-.085zm6.54-5.385c.348-.12.593-.418.665-.774.204-1.127.42-2.253.66-3.375.05-.183.08-.372.138-.553.155-.42.678-.52 1.002-.27.28.216.324.618.318.948-.03.738-.135 1.472-.255 2.202-.12.75-.27 1.498-.445 2.238-.173.803-.434 1.586-.874 2.276-.048.077-.1.15-.15.226-.2.252-.614.28-.85.032-.236-.26-.27-.665-.21-1.004V7.94c0-.702 0-1.405-.002-2.106zm7.258 7.397h-4.63v-1.638h1.614v-.966c-.02-.153.05-.31.18-.415.14-.108.33-.122.484-.04.14.072.228.22.225.38v1.04h2.128v1.64zm-5.696-1.577c-.947.697-1.898 1.385-2.73 2.227-1.14 1.156-2.036 2.493-2.54 4.05-.347.962-.51 1.97-.624 2.984l-.078.966c.01.21-.027.418-.11.608-.258.487-.796.76-1.332.74-.53-.024-1.02-.34-1.226-.827-.12-.27-.14-.568-.133-.86-.06-1.32.067-2.653.473-3.92.51-1.537 1.32-2.946 2.37-4.187 1.373-1.572 3.064-2.825 4.965-3.69l.068-.027c.304-.124.64-.17.954-.055.275.105.474.346.52.637.037.195-.01.396-.103.568-.11.162-.276.28-.466.335l.024.43c-.023.012-.047.02-.07.022zm-12.776.326c-.322.012-.644.024-.966.027l-1.928.028c-.378.01-.756.02-1.134.02l-.658.006c-.463-.004-.925-.014-1.387-.038-.85-.04-1.7-.14-2.535-.333l-.532-.14c-.035 0-.064.03-.064.066l-.004 2.158c.003.226.046.45.163.645.132.193.332.33.56.386.745.176 1.506.275 2.27.284l1.493-.01c1.328-.02 2.654-.105 3.97-.282 1.39-.175 2.762-.482 4.093-.93.2-.07.41-.1.615-.078.29.034.545.2.695.45.14.234.16.52.07.78-.17.51-.307 1.03-.414 1.554-.104.53-.162 1.07-.22 1.606l-.16 2.05c-.09 1.135-.29 2.26-.685 3.34-.46 1.258-1.235 2.368-2.227 3.23-.974.832-2.148 1.4-3.41 1.64-.325.056-.653.08-1.02.08-.2.003-.385.086-.51.23-.122.145-.175.334-.145.52l.142.923c.094.402.484.66.892.61.94-.09 1.865-.308 2.748-.654 1.764-.707 3.242-1.928 4.316-3.497.907-1.34 1.432-2.887 1.637-4.482l.272-2.298c.068-.696.115-1.396.223-2.083.11-.692.3-1.37.584-2.02.264-.593.64-1.127 1.096-1.58.4-.383.91-.617 1.458-.65l.38-.008c.28-.01.55-.13.737-.34.185-.205.27-.48.232-.752-.055-.386-.388-.663-.778-.65-.632.016-1.264.05-1.895.093-2.28.163-4.56.242-6.845.242-.23.003-.43.14-.52.35l-.83 2.1c-.085.2.06.43.275.43zM3.82 5.04c-.38-.06-.75-.17-1.1-.318-.544-.22-1.037-.552-1.442-.96l-1.144 2.87c-.12.33.22.63.518.49.56-.252 1.15-.46 1.758-.616 1.564-.403 3.19-.512 4.793-.34 2.392.234 4.58.985 6.47 2.45l.135.207c.18.283.47.47.8.53.332.056.67-.023.94-.21.26-.178.43-.456.495-.765a22.25 22.25 0 0 0 .152-2.34c.007-.025.033-.04.058-.035.864.135 1.706.37 2.525.688.397.158.835-.06 1.006-.453.07-.152.072-.326.01-.48l-.48-1.28c-.06-.28-.31-.48-.6-.49-.78 0-1.56.09-2.33.22-.65.11-1.303.22-1.954.26-.644.04-1.29.02-1.933-.07-.3-.03-.52-.29-.48-.59.04-.37.19-.71.42-1.01.24-.294.57-.492.93-.6.18-.04.354-.01.52.06l.87.35c.16.07.34.05.49-.03.14-.09.24-.23.27-.4.07-.46.07-.94-.01-1.4l-.06-.26c-.14-.52-.94-.52-1.08 0l-.06.26c-.05.21-.06.43-.05.65h-.02c-.3-.11-.6-.23-.88-.36-.46-.19-.97-.24-1.47-.15-.49.08-.94.33-1.27.7-.44.5-.66 1.16-.62 1.83.003.04-.027.078-.06.09-.033.013-.073.004-.096-.023-.97-1.112-2.22-1.944-3.605-2.434-1.43-.502-2.96-.64-4.446-.42z"/></svg>
