<svg xmlns="http://www.w3.org/2000/svg" viewBox="0 0 48 48" width="48px" height="48px">
    <path fill="#fff" d="M4.868,43.303l2.694-9.835C5.9,30.59,5.026,27.324,5.027,23.979C5.032,13.514,13.548,5,24.014,5c5.079,0.002,9.845,1.979,13.43,5.566c3.584,3.588,5.558,8.356,5.556,13.428c-0.004,10.465-8.522,18.98-18.986,18.98c-3.191,0.003-6.314-0.812-9.152-2.369l-9.996,2.699L4.868,43.303z"/>
    <path fill="#fff" d="M24.014,8.5c8.531,0,15.474,6.94,15.476,15.472c0.002,4.137-1.607,8.025-4.529,10.951c-2.923,2.925-6.81,4.535-10.947,4.533c-2.701-0.001-5.322-0.709-7.662-2.07l-0.548-0.319L9.63,38.749l5.01-1.332l-0.523-0.311C11.536,35.267,9.976,32.324,9.971,29.213C9.965,20.682,16.266,13.738,24.014,8.5z"/>
    <path fill="#4caf50" d="M24,5C13.523,5,5,13.523,5,24c0,3.351,0.871,6.623,2.529,9.505L5,43l9.839-2.583C17.587,41.973,20.768,43,24,43c10.477,0,19-8.523,19-19S34.477,5,24,5z"/>
    <path fill="#fff" d="M35.176,29.986c-0.549-0.275-3.24-1.595-3.743-1.78s-0.872-0.274-1.242,0.276c-0.366,0.549-1.42,1.78-1.741,2.148c-0.322,0.366-0.641,0.412-1.191,0.137c-0.549-0.275-2.317-0.854-4.417-2.726c-1.642-1.463-2.75-3.271-3.072-3.82c-0.32-0.549-0.034-0.846,0.241-1.119c0.247-0.247,0.549-0.641,0.824-0.963c0.274-0.32,0.366-0.548,0.549-0.914c0.183-0.366,0.091-0.686-0.046-0.96c-0.137-0.275-1.242-2.986-1.7-4.088c-0.448-1.074-0.903-0.928-1.242-0.945c-0.321-0.016-0.687-0.02-1.054-0.02c-0.366,0-0.961,0.137-1.463,0.686c-0.502,0.549-1.921,1.875-1.921,4.57s1.968,5.302,2.242,5.669c0.275,0.366,3.873,5.912,9.387,8.288c5.513,2.376,5.513,1.583,6.502,1.488c0.989-0.096,3.24-1.325,3.699-2.605c0.457-1.281,0.457-2.378,0.32-2.609C36.002,30.398,35.724,30.261,35.176,29.986z"/>
</svg>
